<svg width="24" height="24" viewBox="0 0 24 24" fill="none" xmlns="http://www.w3.org/2000/svg">
    <path d="M20.25 4.5H3.75C3.15326 4.5 2.58097 4.73705 2.15901 5.15901C1.73705 5.58097 1.5 6.15326 1.5 6.75V17.25C1.5 17.8467 1.73705 18.419 2.15901 18.841C2.58097 19.2629 3.15326 19.5 3.75 19.5H20.25C20.8467 19.5 21.419 19.2629 21.841 18.841C22.2629 18.419 22.5 17.8467 22.5 17.25V6.75C22.5 6.15326 22.2629 5.58097 21.841 5.15901C21.419 4.73705 20.8467 4.5 20.25 4.5ZM3.75 6H20.25C20.4489 6 20.6397 6.07902 20.7803 6.21967C20.921 6.36032 21 6.55109 21 6.75V8.25H3V6.75C3 6.55109 3.07902 6.36032 3.21967 6.21967C3.36032 6.07902 3.55109 6 3.75 6ZM20.25 18H3.75C3.55109 18 3.36032 17.921 3.21967 17.7803C3.07902 17.6397 3 17.4489 3 17.25V11.25H21V17.25C21 17.4489 20.921 17.6397 20.7803 17.7803C20.6397 17.921 20.4489 18 20.25 18Z" fill="#6259CA"/>
    <path d="M18.75 15.75H12V17.25H18.75V15.75Z" fill="#6259CA"/>
</svg>
