<svg width="22" height="22" viewBox="0 0 22 22" fill="none" xmlns="http://www.w3.org/2000/svg">
<path d="M11.0001 7.25C10.2584 7.25 9.53336 7.46993 8.91668 7.88199C8.29999 8.29404 7.81935 8.87971 7.53552 9.56494C7.25169 10.2502 7.17743 11.0042 7.32212 11.7316C7.46682 12.459 7.82397 13.1272 8.34842 13.6517C8.87286 14.1761 9.54105 14.5333 10.2685 14.6779C10.9959 14.8226 11.7499 14.7484 12.4351 14.4645C13.1204 14.1807 13.706 13.7001 14.1181 13.0834C14.5301 12.4667 14.7501 11.7417 14.7501 11C14.7471 10.0064 14.3511 9.05425 13.6484 8.35163C12.9458 7.64901 11.9937 7.25297 11.0001 7.25ZM19.0963 11C19.0944 11.3504 19.0687 11.7003 19.0194 12.0472L21.3018 13.8341C21.4012 13.9161 21.4682 14.0309 21.4908 14.1578C21.5133 14.2847 21.4901 14.4155 21.4251 14.5269L19.266 18.2544C19.2004 18.3647 19.0979 18.4484 18.9767 18.4907C18.8555 18.5329 18.7232 18.5311 18.6032 18.4855L15.9196 17.4073C15.3608 17.8377 14.7493 18.1948 14.0999 18.47L13.6987 21.3191C13.6762 21.4467 13.6101 21.5625 13.5117 21.6468C13.4133 21.7311 13.2887 21.7786 13.1591 21.7812H8.841C8.71381 21.7788 8.59121 21.7333 8.49322 21.6521C8.39523 21.571 8.32763 21.459 8.30147 21.3345L7.90022 18.4855C7.24907 18.2134 6.63711 17.8557 6.08054 17.4219L3.39694 18.5C3.27698 18.5457 3.14477 18.5476 3.02354 18.5054C2.90231 18.4632 2.79984 18.3796 2.73413 18.2694L0.575067 14.5423C0.510078 14.431 0.486796 14.3002 0.50938 14.1733C0.531964 14.0464 0.598943 13.9316 0.698348 13.8495L2.98069 12.0627C2.93201 11.7105 2.90633 11.3555 2.90382 11C2.90577 10.6496 2.93145 10.2997 2.98069 9.95281L0.698348 8.16594C0.598943 8.08386 0.531964 7.96911 0.50938 7.84219C0.486796 7.71527 0.510078 7.58446 0.575067 7.47312L2.73413 3.74563C2.79976 3.63528 2.90221 3.55161 3.02344 3.50934C3.14467 3.46707 3.27693 3.46891 3.39694 3.51453L6.08054 4.59266C6.63934 4.16235 7.25086 3.80524 7.90022 3.53L8.30147 0.680938C8.32393 0.55332 8.39001 0.437462 8.48842 0.353161C8.58682 0.268861 8.71145 0.221351 8.841 0.21875H13.1591C13.2863 0.221226 13.4089 0.266746 13.5069 0.34788C13.6049 0.429013 13.6725 0.540968 13.6987 0.665469L14.0999 3.51453C14.7519 3.78639 15.3646 4.14408 15.9219 4.57812L18.6032 3.5C18.7232 3.45434 18.8554 3.45243 18.9766 3.49461C19.0978 3.53679 19.2003 3.62036 19.266 3.73062L21.4251 7.45813C21.4901 7.56946 21.5133 7.70027 21.4908 7.82719C21.4682 7.95411 21.4012 8.06886 21.3018 8.15094L19.0194 9.93781C19.0681 10.2898 19.0938 10.6446 19.0963 11Z" fill="black"/>
</svg>
