<svg width="18" height="22" viewBox="0 0 18 22" fill="none" xmlns="http://www.w3.org/2000/svg">
<path d="M14.625 6.5H9.75V13.6892L12.2198 11.2198C12.3616 11.0851 12.5505 11.0111 12.746 11.0136C12.9416 11.0161 13.1285 11.0949 13.2668 11.2332C13.4051 11.3715 13.4839 11.5584 13.4864 11.754C13.4889 11.9495 13.4149 12.1384 13.2802 12.2802L9.53016 16.0302C9.38952 16.1707 9.19883 16.2497 9 16.2497C8.80117 16.2497 8.61048 16.1707 8.46984 16.0302L4.71984 12.2802C4.58513 12.1384 4.51114 11.9495 4.51364 11.754C4.51614 11.5584 4.59495 11.3715 4.73325 11.2332C4.87155 11.0949 5.0584 11.0161 5.25398 11.0136C5.44955 11.0111 5.63836 11.0851 5.78016 11.2198L8.25 13.6892V6.5H3.375C2.67904 6.50074 2.01179 6.77754 1.51967 7.26967C1.02755 7.76179 0.750744 8.42904 0.75 9.125V18.875C0.750744 19.571 1.02755 20.2382 1.51967 20.7303C2.01179 21.2225 2.67904 21.4993 3.375 21.5H14.625C15.321 21.4993 15.9882 21.2225 16.4803 20.7303C16.9725 20.2382 17.2493 19.571 17.25 18.875V9.125C17.2493 8.42904 16.9725 7.76179 16.4803 7.26967C15.9882 6.77754 15.321 6.50074 14.625 6.5ZM9.75 1.25C9.75 1.05109 9.67098 0.860322 9.53033 0.71967C9.38968 0.579018 9.19891 0.5 9 0.5C8.80109 0.5 8.61032 0.579018 8.46967 0.71967C8.32902 0.860322 8.25 1.05109 8.25 1.25V6.5H9.75V1.25Z" fill="white"/>
</svg>
