<svg width="20" height="20" viewBox="0 0 20 20" fill="none" xmlns="http://www.w3.org/2000/svg">
<path d="M10 0.25C4.61547 0.25 0.25 4.61547 0.25 10C0.25 15.3761 4.62437 19.75 10 19.75C15.3841 19.75 19.75 15.3841 19.75 10C19.75 4.62391 15.3761 0.25 10 0.25ZM15.0625 11.5H9.4375C9.38777 11.5 9.34008 11.4802 9.30492 11.4451C9.26975 11.4099 9.25 11.3622 9.25 11.3125V3.4375C9.25 3.38777 9.26975 3.34008 9.30492 3.30492C9.34008 3.26975 9.38777 3.25 9.4375 3.25H10.5625C10.6122 3.25 10.6599 3.26975 10.6951 3.30492C10.7302 3.34008 10.75 3.38777 10.75 3.4375V10H15.0625C15.1122 10 15.1599 10.0198 15.1951 10.0549C15.2302 10.0901 15.25 10.1378 15.25 10.1875V11.3125C15.25 11.3622 15.2302 11.4099 15.1951 11.4451C15.1599 11.4802 15.1122 11.5 15.0625 11.5Z" fill="white"/>
</svg>
