<svg width="23" height="17" viewBox="0 0 23 17" fill="none" xmlns="http://www.w3.org/2000/svg">
<path d="M14.9999 8.25C14.0362 8.25 13.1043 7.81969 12.3749 7.03875C11.6657 6.27703 11.2326 5.26125 11.1562 4.17938C11.0746 3.02531 11.4267 1.96406 12.1471 1.19063C12.8676 0.417188 13.8749 0 14.9999 0C16.117 0 17.1271 0.424687 17.8453 1.19625C18.5704 1.97531 18.9234 3.03469 18.8418 4.17891C18.7635 5.26219 18.3309 6.2775 17.6231 7.03828C16.8956 7.81969 15.9642 8.25 14.9999 8.25ZM21.1795 16.5H8.82088C8.62219 16.5011 8.42589 16.4565 8.24711 16.3698C8.06833 16.2831 7.91182 16.1565 7.78963 15.9998C7.66003 15.83 7.57052 15.633 7.52782 15.4236C7.48513 15.2143 7.49034 14.998 7.54307 14.7909C7.93776 13.2061 8.91557 11.8917 10.3706 10.9903C11.662 10.1906 13.3059 9.75 14.9999 9.75C16.7273 9.75 18.3281 10.1719 19.627 10.9711C21.0853 11.8678 22.0645 13.1897 22.4573 14.7938C22.5094 15.001 22.514 15.2173 22.4708 15.4265C22.4277 15.6357 22.3378 15.8325 22.2079 16.0022C22.0859 16.1582 21.9297 16.2841 21.7514 16.3704C21.5732 16.4567 21.3775 16.501 21.1795 16.5V16.5ZM6.14057 8.4375C4.49104 8.4375 3.04073 6.90375 2.9062 5.01891C2.83963 4.05328 3.14057 3.16031 3.74995 2.50547C4.35276 1.85719 5.20307 1.5 6.14057 1.5C7.07807 1.5 7.92182 1.85906 8.52792 2.51109C9.14198 3.17109 9.44198 4.06219 9.37167 5.01984C9.23713 6.90422 7.78729 8.4375 6.14057 8.4375ZM9.21838 9.91172C8.39385 9.50859 7.3237 9.30703 6.14104 9.30703C4.7601 9.30703 3.41901 9.66703 2.36432 10.3205C1.16854 11.0625 0.364165 12.143 0.0393217 13.4475C-0.00821654 13.6351 -0.0127128 13.8311 0.0261692 14.0207C0.0650512 14.2103 0.146305 14.3887 0.263853 14.5425C0.375391 14.6857 0.518283 14.8014 0.68154 14.8807C0.844798 14.96 1.02407 15.0008 1.20557 15H6.4087C6.49652 15 6.58155 14.9692 6.64896 14.9129C6.71638 14.8566 6.76191 14.7784 6.7776 14.692C6.78276 14.6625 6.78932 14.633 6.79682 14.6039C7.19432 13.0073 8.12573 11.6583 9.50198 10.6748C9.5526 10.6384 9.59331 10.5898 9.62043 10.5336C9.64755 10.4774 9.66022 10.4153 9.65728 10.353C9.65435 10.2907 9.63591 10.2301 9.60364 10.1767C9.57136 10.1233 9.52627 10.0788 9.47245 10.0472C9.39885 10.0041 9.31448 9.95859 9.21838 9.91172V9.91172Z" fill="#6259CA"/>
</svg>
