<svg width="24" height="24" viewBox="0 0 24 24" fill="none" xmlns="http://www.w3.org/2000/svg">
<g clip-path="url(#clip0_310_23703)">
<path d="M23.25 15C22.836 15 22.5 14.664 22.5 14.25C22.5 11.355 20.145 8.99997 17.25 8.99997H10V12.25C10 12.91 9.206 13.244 8.732 12.792L3.232 7.54197C3.084 7.40097 3 7.20497 3 6.99997C3 6.79497 3.084 6.59897 3.232 6.45797L8.732 1.20797C9.208 0.753967 10 1.09197 10 1.74997V4.99997H16.25C20.523 4.99997 24 8.47697 24 12.75V14.25C24 14.664 23.664 15 23.25 15Z" fill="#6259CA"/>
<path d="M14 22.25V19H7.75C3.477 19 0 15.523 0 11.25V9.75C0 9.336 0.336 9 0.75 9C1.164 9 1.5 9.336 1.5 9.75C1.5 12.645 3.855 15 6.75 15H14V11.75C14 11.093 14.791 10.752 15.268 11.208L20.768 16.458C20.916 16.599 21 16.795 21 17C21 17.205 20.916 17.401 20.768 17.542L15.268 22.792C14.791 23.246 14 22.908 14 22.25Z" fill="#6259CA"/>
</g>
<defs>
<clipPath id="clip0_310_23703">
<rect width="24" height="24" fill="white"/>
</clipPath>
</defs>
</svg>
