<svg width="16" height="17" viewBox="0 0 16 17" fill="none" xmlns="http://www.w3.org/2000/svg">
<path opacity="0.5" d="M7.91642 0.977142C5.62066 0.977142 3.75292 2.84489 3.75292 5.14064C3.75292 7.43639 5.62066 9.30414 7.91642 9.30414C10.2122 9.30414 12.0799 7.43639 12.0799 5.14064C12.0799 2.84489 10.2122 0.977142 7.91642 0.977142ZM7.91642 7.63874C6.53913 7.63874 5.41832 6.51793 5.41832 5.14064C5.41832 3.76336 6.53913 2.64254 7.91642 2.64254C9.2937 2.64254 10.4145 3.76336 10.4145 5.14064C10.4145 6.51793 9.2937 7.63874 7.91642 7.63874ZM15.4107 16.7984V15.9657C15.4107 12.7523 12.7952 10.1368 9.58181 10.1368H6.25102C3.0368 10.1368 0.422119 12.7523 0.422119 15.9657V16.7984H2.08752V15.9657C2.08752 13.67 3.95526 11.8022 6.25102 11.8022H9.58181C11.8776 11.8022 13.7453 13.67 13.7453 15.9657V16.7984H15.4107Z" fill="#03014C"/>
</svg>
