<svg width="14" height="18" viewBox="0 0 14 18" fill="none" xmlns="http://www.w3.org/2000/svg">
<path opacity="0.5" d="M6.91636 0.410675C4.6206 0.410675 2.75286 2.27842 2.75286 4.57417V6.23957H1.92016C1.00169 6.23957 0.254761 6.9865 0.254761 7.90497V15.3993C0.254761 16.3177 1.00169 17.0647 1.92016 17.0647H11.9126C12.831 17.0647 13.578 16.3177 13.578 15.3993V7.90497C13.578 6.9865 12.831 6.23957 11.9126 6.23957H11.0799V4.57417C11.0799 2.27842 9.21211 0.410675 6.91636 0.410675ZM4.41826 4.57417C4.41826 3.19689 5.53907 2.07607 6.91636 2.07607C8.29364 2.07607 9.41446 3.19689 9.41446 4.57417V6.23957H4.41826V4.57417ZM11.9142 15.3993H7.74906V13.5024C8.24451 13.2134 8.58176 12.6822 8.58176 12.0685C8.58176 11.15 7.83483 10.4031 6.91636 10.4031C5.99789 10.4031 5.25096 11.15 5.25096 12.0685C5.25096 12.6813 5.5882 13.2134 6.08366 13.5024V15.3993H1.92016V7.90497H11.9126L11.9142 15.3993Z" fill="#03014C"/>
</svg>
